{
    "asset" : {
        "generator" : "Khronos glTF Blender I/O v3.3.27",
        "version" : "2.0"
    },
    "extensionsUsed" : [
        "KHR_materials_transmission",
        "KHR_materials_specular",
        "KHR_materials_ior"
    ],
    "scene" : 0,
    "scenes" : [
        {
            "name" : "Scene",
            "nodes" : [
                0,
                1,
                2
            ]
        }
    ],
    "nodes" : [
        {
            "mesh" : 0,
            "name" : "glass_cover",
            "rotation" : [
                -0.06850860267877579,
                0.38808363676071167,
                -0.004615982994437218,
                0.9190627932548523
            ],
            "scale" : [
                0.30000001192092896,
                0.30000001192092896,
                0.30000001192092896
            ],
            "translation" : [
                0.23560132086277008,
                1.0773935317993164,
                -0.004945516586303711
            ]
        },
        {
            "mesh" : 1,
            "name" : "pllanet",
            "scale" : [
                0.5,
                0.5,
                0.5
            ],
            "translation" : [
                -2.0299506187438965,
                1.8272125720977783,
                2.694009780883789
            ]
        },
        {
            "mesh" : 2,
            "name" : "planet2",
            "scale" : [
                1.5,
                1.5,
                1.5
            ],
            "translation" : [
                -6.7956953048706055,
                3.56691837310791,
                -5.019223690032959
            ]
        }
    ],
    "materials" : [
        {
            "doubleSided" : true,
            "extensions" : {
                "KHR_materials_transmission" : {
                    "transmissionFactor" : 1
                },
                "KHR_materials_specular" : {
                    "specularColorFactor" : [
                        1,
                        1,
                        1
                    ]
                },
                "KHR_materials_ior" : {
                    "ior" : 1.4500000476837158
                }
            },
            "name" : "glass",
            "pbrMetallicRoughness" : {
                "baseColorFactor" : [
                    0.5403280854225159,
                    0.8000000715255737,
                    0.8000000715255737,
                    1
                ],
                "metallicFactor" : 0,
                "roughnessFactor" : 0
            }
        },
        {
            "doubleSided" : true,
            "extensions" : {
                "KHR_materials_specular" : {
                    "specularColorFactor" : [
                        2.371357614441398,
                        2.371357614441398,
                        2.371357614441398
                    ]
                },
                "KHR_materials_ior" : {
                    "ior" : 1.4500000476837158
                }
            },
            "name" : "B612",
            "pbrMetallicRoughness" : {
                "baseColorFactor" : [
                    0.06195124611258507,
                    0.07425470650196075,
                    0.8000000715255737,
                    1
                ],
                "metallicFactor" : 0,
                "roughnessFactor" : 0.10000000149011612
            }
        },
        {
            "doubleSided" : true,
            "extensions" : {
                "KHR_materials_specular" : {
                    "specularColorFactor" : [
                        2.371357614441398,
                        2.371357614441398,
                        2.371357614441398
                    ]
                },
                "KHR_materials_ior" : {
                    "ior" : 1.4500000476837158
                }
            },
            "name" : "planet",
            "pbrMetallicRoughness" : {
                "baseColorFactor" : [
                    0.3423827886581421,
                    0.3423827886581421,
                    0.3423827886581421,
                    1
                ],
                "metallicFactor" : 0,
                "roughnessFactor" : 0.05905511975288391
            }
        },
        {
            "doubleSided" : true,
            "extensions" : {
                "KHR_materials_specular" : {
                    "specularColorFactor" : [
                        2.371357614441398,
                        2.371357614441398,
                        2.371357614441398
                    ]
                },
                "KHR_materials_ior" : {
                    "ior" : 1.4500000476837158
                }
            },
            "name" : "planet2",
            "pbrMetallicRoughness" : {
                "baseColorFactor" : [
                    0.7230419516563416,
                    0.34048789739608765,
                    0.16885338723659515,
                    1
                ],
                "metallicFactor" : 0,
                "roughnessFactor" : 0.043307095766067505
            }
        }
    ],
    "meshes" : [
        {
            "name" : "Sphere.001",
            "primitives" : [
                {
                    "attributes" : {
                        "POSITION" : 0,
                        "NORMAL" : 1,
                        "TEXCOORD_0" : 2
                    },
                    "indices" : 3,
                    "material" : 0
                },
                {
                    "attributes" : {
                        "POSITION" : 4,
                        "NORMAL" : 5,
                        "TEXCOORD_0" : 6
                    },
                    "indices" : 7,
                    "material" : 1
                }
            ]
        },
        {
            "name" : "Sphere.002",
            "primitives" : [
                {
                    "attributes" : {
                        "POSITION" : 8,
                        "NORMAL" : 9,
                        "TEXCOORD_0" : 10
                    },
                    "indices" : 11,
                    "material" : 2
                }
            ]
        },
        {
            "name" : "Sphere.003",
            "primitives" : [
                {
                    "attributes" : {
                        "POSITION" : 12,
                        "NORMAL" : 13,
                        "TEXCOORD_0" : 14
                    },
                    "indices" : 11,
                    "material" : 3
                }
            ]
        }
    ],
    "accessors" : [
        {
            "bufferView" : 0,
            "componentType" : 5126,
            "count" : 559,
            "max" : [
                0.9999997019767761,
                1,
                0.9999993443489075
            ],
            "min" : [
                -0.9999990463256836,
                -1,
                -1
            ],
            "type" : "VEC3"
        },
        {
            "bufferView" : 1,
            "componentType" : 5126,
            "count" : 559,
            "type" : "VEC3"
        },
        {
            "bufferView" : 2,
            "componentType" : 5126,
            "count" : 559,
            "type" : "VEC2"
        },
        {
            "bufferView" : 3,
            "componentType" : 5123,
            "count" : 2880,
            "type" : "SCALAR"
        },
        {
            "bufferView" : 4,
            "componentType" : 5126,
            "count" : 559,
            "max" : [
                2.547994375228882,
                0.5734097957611084,
                2.3503000736236572
            ],
            "min" : [
                -4.1186676025390625,
                -6.093255996704102,
                -4.31636381149292
            ],
            "type" : "VEC3"
        },
        {
            "bufferView" : 5,
            "componentType" : 5126,
            "count" : 559,
            "type" : "VEC3"
        },
        {
            "bufferView" : 6,
            "componentType" : 5126,
            "count" : 559,
            "type" : "VEC2"
        },
        {
            "bufferView" : 7,
            "componentType" : 5123,
            "count" : 2880,
            "type" : "SCALAR"
        },
        {
            "bufferView" : 8,
            "componentType" : 5126,
            "count" : 559,
            "max" : [
                0.9999997019767761,
                1,
                0.9999993443489075
            ],
            "min" : [
                -0.9999990463256836,
                -1,
                -1
            ],
            "type" : "VEC3"
        },
        {
            "bufferView" : 9,
            "componentType" : 5126,
            "count" : 559,
            "type" : "VEC3"
        },
        {
            "bufferView" : 10,
            "componentType" : 5126,
            "count" : 559,
            "type" : "VEC2"
        },
        {
            "bufferView" : 11,
            "componentType" : 5123,
            "count" : 2880,
            "type" : "SCALAR"
        },
        {
            "bufferView" : 12,
            "componentType" : 5126,
            "count" : 559,
            "max" : [
                0.9999997019767761,
                1,
                0.9999993443489075
            ],
            "min" : [
                -0.9999990463256836,
                -1,
                -1
            ],
            "type" : "VEC3"
        },
        {
            "bufferView" : 13,
            "componentType" : 5126,
            "count" : 559,
            "type" : "VEC3"
        },
        {
            "bufferView" : 14,
            "componentType" : 5126,
            "count" : 559,
            "type" : "VEC2"
        }
    ],
    "bufferViews" : [
        {
            "buffer" : 0,
            "byteLength" : 6708,
            "byteOffset" : 0,
            "target" : 34962
        },
        {
            "buffer" : 0,
            "byteLength" : 6708,
            "byteOffset" : 6708,
            "target" : 34962
        },
        {
            "buffer" : 0,
            "byteLength" : 4472,
            "byteOffset" : 13416,
            "target" : 34962
        },
        {
            "buffer" : 0,
            "byteLength" : 5760,
            "byteOffset" : 17888,
            "target" : 34963
        },
        {
            "buffer" : 0,
            "byteLength" : 6708,
            "byteOffset" : 23648,
            "target" : 34962
        },
        {
            "buffer" : 0,
            "byteLength" : 6708,
            "byteOffset" : 30356,
            "target" : 34962
        },
        {
            "buffer" : 0,
            "byteLength" : 4472,
            "byteOffset" : 37064,
            "target" : 34962
        },
        {
            "buffer" : 0,
            "byteLength" : 5760,
            "byteOffset" : 41536,
            "target" : 34963
        },
        {
            "buffer" : 0,
            "byteLength" : 6708,
            "byteOffset" : 47296,
            "target" : 34962
        },
        {
            "buffer" : 0,
            "byteLength" : 6708,
            "byteOffset" : 54004,
            "target" : 34962
        },
        {
            "buffer" : 0,
            "byteLength" : 4472,
            "byteOffset" : 60712,
            "target" : 34962
        },
        {
            "buffer" : 0,
            "byteLength" : 5760,
            "byteOffset" : 65184,
            "target" : 34963
        },
        {
            "buffer" : 0,
            "byteLength" : 6708,
            "byteOffset" : 70944,
            "target" : 34962
        },
        {
            "buffer" : 0,
            "byteLength" : 6708,
            "byteOffset" : 77652,
            "target" : 34962
        },
        {
            "buffer" : 0,
            "byteLength" : 4472,
            "byteOffset" : 84360,
            "target" : 34962
        }
    ],
    "buffers" : [
        {
            "byteLength" : 88832,
            "uri" : "data:application/octet-stream;base64,"
        }
    ]
}
